<?xml version="1.0" encoding="UTF-8"?>
<svg xmlns="http://www.w3.org/2000/svg" xmlns:xlink="http://www.w3.org/1999/xlink" width="36pt" height="12pt" viewBox="0 0 36 12" version="1.1">
<defs>
<g>
<symbol overflow="visible" id="glyph0-0">
<path style="stroke:none;" d=""/>
</symbol>
<symbol overflow="visible" id="glyph0-1">
<path style="stroke:none;" d="M 1.109375 -0.734375 C 1.0625 -0.546875 0.984375 -0.265625 0.984375 -0.203125 C 0.984375 0.03125 1.171875 0.140625 1.359375 0.140625 C 1.5 0.140625 1.734375 0.03125 1.8125 -0.21875 C 1.84375 -0.265625 2.265625 -1.96875 2.328125 -2.203125 C 2.421875 -2.609375 2.640625 -3.484375 2.71875 -3.828125 C 2.765625 -3.984375 3.125 -4.578125 3.421875 -4.859375 C 3.53125 -4.9375 3.890625 -5.265625 4.421875 -5.265625 C 4.75 -5.265625 4.9375 -5.125 4.953125 -5.125 C 4.578125 -5.0625 4.296875 -4.75 4.296875 -4.421875 C 4.296875 -4.234375 4.4375 -3.984375 4.78125 -3.984375 C 5.125 -3.984375 5.46875 -4.28125 5.46875 -4.734375 C 5.46875 -5.171875 5.0625 -5.546875 4.421875 -5.546875 C 3.609375 -5.546875 3.0625 -4.9375 2.828125 -4.578125 C 2.71875 -5.140625 2.265625 -5.546875 1.6875 -5.546875 C 1.109375 -5.546875 0.859375 -5.0625 0.75 -4.828125 C 0.53125 -4.40625 0.359375 -3.65625 0.359375 -3.609375 C 0.359375 -3.484375 0.484375 -3.484375 0.515625 -3.484375 C 0.640625 -3.484375 0.65625 -3.5 0.734375 -3.78125 C 0.9375 -4.671875 1.1875 -5.265625 1.640625 -5.265625 C 1.859375 -5.265625 2.03125 -5.171875 2.03125 -4.6875 C 2.03125 -4.421875 2 -4.296875 1.828125 -3.640625 Z M 1.109375 -0.734375 "/>
</symbol>
<symbol overflow="visible" id="glyph1-0">
<path style="stroke:none;" d=""/>
</symbol>
<symbol overflow="visible" id="glyph1-1">
<path style="stroke:none;" d="M 3.84375 -3.359375 C 3.53125 -3.3125 3.390625 -3.0625 3.390625 -2.875 C 3.390625 -2.640625 3.578125 -2.546875 3.734375 -2.546875 C 3.9375 -2.546875 4.234375 -2.6875 4.234375 -3.109375 C 4.234375 -3.703125 3.5625 -3.875 3.078125 -3.875 C 1.765625 -3.875 0.546875 -2.65625 0.546875 -1.4375 C 0.546875 -0.6875 1.078125 0.09375 2.171875 0.09375 C 3.65625 0.09375 4.34375 -0.78125 4.34375 -0.90625 C 4.34375 -0.953125 4.265625 -1.046875 4.203125 -1.046875 C 4.140625 -1.046875 4.125 -1.03125 4.0625 -0.96875 C 3.375 -0.15625 2.34375 -0.15625 2.1875 -0.15625 C 1.546875 -0.15625 1.265625 -0.59375 1.265625 -1.125 C 1.265625 -1.390625 1.390625 -2.34375 1.859375 -2.953125 C 2.1875 -3.375 2.640625 -3.625 3.078125 -3.625 C 3.203125 -3.625 3.625 -3.609375 3.84375 -3.359375 Z M 3.84375 -3.359375 "/>
</symbol>
<symbol overflow="visible" id="glyph2-0">
<path style="stroke:none;" d=""/>
</symbol>
<symbol overflow="visible" id="glyph2-1">
<path style="stroke:none;" d="M 8.625 -4.109375 C 8.8125 -4.109375 9.046875 -4.109375 9.046875 -4.359375 C 9.046875 -4.609375 8.8125 -4.609375 8.625 -4.609375 L 1.109375 -4.609375 C 0.9375 -4.609375 0.703125 -4.609375 0.703125 -4.359375 C 0.703125 -4.109375 0.9375 -4.109375 1.125 -4.109375 Z M 8.625 -1.671875 C 8.8125 -1.671875 9.046875 -1.671875 9.046875 -1.921875 C 9.046875 -2.171875 8.8125 -2.171875 8.625 -2.171875 L 1.125 -2.171875 C 0.9375 -2.171875 0.703125 -2.171875 0.703125 -1.921875 C 0.703125 -1.671875 0.9375 -1.671875 1.109375 -1.671875 Z M 8.625 -1.671875 "/>
</symbol>
<symbol overflow="visible" id="glyph2-2">
<path style="stroke:none;" d="M 3.6875 -8.03125 C 3.6875 -8.328125 3.6875 -8.359375 3.40625 -8.359375 C 2.625 -7.546875 1.515625 -7.546875 1.109375 -7.546875 L 1.109375 -7.171875 C 1.375 -7.171875 2.109375 -7.171875 2.765625 -7.484375 L 2.765625 -0.984375 C 2.765625 -0.546875 2.71875 -0.390625 1.59375 -0.390625 L 1.1875 -0.390625 L 1.1875 0 C 1.625 -0.03125 2.71875 -0.03125 3.21875 -0.03125 C 3.71875 -0.03125 4.8125 -0.03125 5.25 0 L 5.25 -0.390625 L 4.859375 -0.390625 C 3.71875 -0.390625 3.6875 -0.53125 3.6875 -0.984375 Z M 3.6875 -8.03125 "/>
</symbol>
</g>
</defs>
<g id="surface1">
<g style="fill:rgb(0%,0%,0%);fill-opacity:1;">
  <use xlink:href="#glyph0-1" x="1.25703" y="8.82852"/>
</g>
<g style="fill:rgb(0%,0%,0%);fill-opacity:1;">
  <use xlink:href="#glyph1-1" x="6.97148" y="10.71446"/>
</g>
<g style="fill:rgb(0%,0%,0%);fill-opacity:1;">
  <use xlink:href="#glyph2-1" x="15.54296" y="8.82852"/>
</g>
<g style="fill:rgb(0%,0%,0%);fill-opacity:1;">
  <use xlink:href="#glyph2-2" x="28.799977" y="8.82852"/>
</g>
</g>
</svg>
