<?xml version="1.0" encoding="UTF-8"?>
<svg xmlns="http://www.w3.org/2000/svg" xmlns:xlink="http://www.w3.org/1999/xlink" width="37pt" height="11pt" viewBox="0 0 37 11" version="1.1">
<defs>
<g>
<symbol overflow="visible" id="glyph0-0">
<path style="stroke:none;" d=""/>
</symbol>
<symbol overflow="visible" id="glyph0-1">
<path style="stroke:none;" d="M 4.1875 -3.796875 C 4.265625 -4.109375 4.546875 -5.265625 5.4375 -5.265625 C 5.5 -5.265625 5.796875 -5.265625 6.0625 -5.109375 C 5.703125 -5.046875 5.453125 -4.734375 5.453125 -4.421875 C 5.453125 -4.234375 5.59375 -3.984375 5.9375 -3.984375 C 6.203125 -3.984375 6.609375 -4.21875 6.609375 -4.71875 C 6.609375 -5.375 5.875 -5.546875 5.4375 -5.546875 C 4.71875 -5.546875 4.28125 -4.875 4.125 -4.59375 C 3.8125 -5.421875 3.140625 -5.546875 2.765625 -5.546875 C 1.46875 -5.546875 0.75 -3.921875 0.75 -3.609375 C 0.75 -3.484375 0.875 -3.484375 0.90625 -3.484375 C 1 -3.484375 1.046875 -3.515625 1.0625 -3.625 C 1.5 -4.953125 2.328125 -5.265625 2.75 -5.265625 C 2.984375 -5.265625 3.421875 -5.15625 3.421875 -4.421875 C 3.421875 -4.046875 3.21875 -3.203125 2.75 -1.4375 C 2.546875 -0.671875 2.109375 -0.140625 1.5625 -0.140625 C 1.484375 -0.140625 1.1875 -0.140625 0.921875 -0.296875 C 1.234375 -0.359375 1.515625 -0.625 1.515625 -0.984375 C 1.515625 -1.3125 1.234375 -1.421875 1.046875 -1.421875 C 0.671875 -1.421875 0.359375 -1.09375 0.359375 -0.6875 C 0.359375 -0.109375 0.984375 0.140625 1.546875 0.140625 C 2.375 0.140625 2.828125 -0.734375 2.859375 -0.8125 C 3.015625 -0.34375 3.46875 0.140625 4.21875 0.140625 C 5.515625 0.140625 6.21875 -1.484375 6.21875 -1.796875 C 6.21875 -1.921875 6.109375 -1.921875 6.078125 -1.921875 C 5.953125 -1.921875 5.9375 -1.875 5.90625 -1.78125 C 5.5 -0.4375 4.640625 -0.140625 4.234375 -0.140625 C 3.75 -0.140625 3.546875 -0.546875 3.546875 -0.96875 C 3.546875 -1.234375 3.625 -1.515625 3.765625 -2.0625 Z M 4.1875 -3.796875 "/>
</symbol>
<symbol overflow="visible" id="glyph0-2">
<path style="stroke:none;" d="M 8.46875 -6.25 C 8.625 -6.328125 8.703125 -6.390625 8.703125 -6.53125 C 8.703125 -6.65625 8.59375 -6.78125 8.453125 -6.78125 C 8.421875 -6.78125 8.390625 -6.78125 8.234375 -6.6875 L 1.28125 -3.40625 C 1.140625 -3.34375 1.046875 -3.28125 1.046875 -3.140625 C 1.046875 -2.984375 1.140625 -2.921875 1.28125 -2.859375 L 8.234375 0.40625 C 8.390625 0.5 8.421875 0.5 8.453125 0.5 C 8.59375 0.5 8.703125 0.390625 8.703125 0.25 C 8.703125 0.109375 8.625 0.046875 8.46875 -0.03125 L 1.875 -3.140625 Z M 8.46875 -6.25 "/>
</symbol>
<symbol overflow="visible" id="glyph0-3">
<path style="stroke:none;" d="M 1.109375 -0.734375 C 1.0625 -0.546875 0.984375 -0.265625 0.984375 -0.203125 C 0.984375 0.03125 1.171875 0.140625 1.359375 0.140625 C 1.5 0.140625 1.734375 0.03125 1.8125 -0.21875 C 1.84375 -0.265625 2.265625 -1.96875 2.328125 -2.203125 C 2.421875 -2.609375 2.640625 -3.484375 2.71875 -3.828125 C 2.765625 -3.984375 3.125 -4.578125 3.421875 -4.859375 C 3.53125 -4.9375 3.890625 -5.265625 4.421875 -5.265625 C 4.75 -5.265625 4.9375 -5.125 4.953125 -5.125 C 4.578125 -5.0625 4.296875 -4.75 4.296875 -4.421875 C 4.296875 -4.234375 4.4375 -3.984375 4.78125 -3.984375 C 5.125 -3.984375 5.46875 -4.28125 5.46875 -4.734375 C 5.46875 -5.171875 5.0625 -5.546875 4.421875 -5.546875 C 3.609375 -5.546875 3.0625 -4.9375 2.828125 -4.578125 C 2.71875 -5.140625 2.265625 -5.546875 1.6875 -5.546875 C 1.109375 -5.546875 0.859375 -5.0625 0.75 -4.828125 C 0.53125 -4.40625 0.359375 -3.65625 0.359375 -3.609375 C 0.359375 -3.484375 0.484375 -3.484375 0.515625 -3.484375 C 0.640625 -3.484375 0.65625 -3.5 0.734375 -3.78125 C 0.9375 -4.671875 1.1875 -5.265625 1.640625 -5.265625 C 1.859375 -5.265625 2.03125 -5.171875 2.03125 -4.6875 C 2.03125 -4.421875 2 -4.296875 1.828125 -3.640625 Z M 1.109375 -0.734375 "/>
</symbol>
<symbol overflow="visible" id="glyph1-0">
<path style="stroke:none;" d=""/>
</symbol>
<symbol overflow="visible" id="glyph1-1">
<path style="stroke:none;" d="M 4.53125 -2.796875 C 4.53125 -3.765625 4.421875 -4.453125 4.015625 -5.078125 C 3.734375 -5.484375 3.203125 -5.828125 2.5 -5.828125 C 0.453125 -5.828125 0.453125 -3.4375 0.453125 -2.796875 C 0.453125 -2.171875 0.453125 0.171875 2.5 0.171875 C 4.53125 0.171875 4.53125 -2.171875 4.53125 -2.796875 Z M 2.5 -0.0625 C 2.09375 -0.0625 1.546875 -0.3125 1.375 -1.03125 C 1.25 -1.546875 1.25 -2.265625 1.25 -2.921875 C 1.25 -3.5625 1.25 -4.21875 1.390625 -4.703125 C 1.578125 -5.40625 2.140625 -5.578125 2.5 -5.578125 C 2.96875 -5.578125 3.421875 -5.296875 3.578125 -4.78125 C 3.71875 -4.3125 3.734375 -3.671875 3.734375 -2.921875 C 3.734375 -2.265625 3.734375 -1.609375 3.625 -1.0625 C 3.4375 -0.265625 2.84375 -0.0625 2.5 -0.0625 Z M 2.5 -0.0625 "/>
</symbol>
</g>
</defs>
<g id="surface1">
<g style="fill:rgb(0%,0%,0%);fill-opacity:1;">
  <use xlink:href="#glyph0-1" x="1.25703" y="7.82852"/>
</g>
<g style="fill:rgb(0%,0%,0%);fill-opacity:1;">
  <use xlink:href="#glyph0-2" x="11.942561" y="7.82852"/>
</g>
<g style="fill:rgb(0%,0%,0%);fill-opacity:1;">
  <use xlink:href="#glyph0-3" x="25.199578" y="7.82852"/>
</g>
<g style="fill:rgb(0%,0%,0%);fill-opacity:1;">
  <use xlink:href="#glyph1-1" x="30.85703" y="9.71446"/>
</g>
</g>
</svg>
