<?xml version="1.0" encoding="UTF-8"?>
<svg xmlns="http://www.w3.org/2000/svg" xmlns:xlink="http://www.w3.org/1999/xlink" width="20pt" height="8pt" viewBox="0 0 20 8" version="1.1">
<defs>
<g>
<symbol overflow="visible" id="glyph0-0">
<path style="stroke:none;" d=""/>
</symbol>
<symbol overflow="visible" id="glyph0-1">
<path style="stroke:none;" d="M 3.625 -5.390625 C 3.6875 -5.625 3.703125 -5.65625 3.90625 -5.6875 L 4.453125 -5.6875 C 5.28125 -5.6875 6.28125 -5.6875 6.28125 -4.78125 C 6.28125 -4.421875 6.125 -3.859375 5.703125 -3.546875 C 5.34375 -3.265625 4.796875 -3.125 4.203125 -3.125 L 3.0625 -3.125 Z M 5.21875 -2.984375 C 6.265625 -3.234375 7.1875 -3.859375 7.1875 -4.640625 C 7.1875 -5.40625 6.296875 -6 5.015625 -6 L 2.328125 -6 C 2.15625 -6 2.046875 -6 2.046875 -5.796875 C 2.046875 -5.6875 2.15625 -5.6875 2.328125 -5.6875 C 2.328125 -5.6875 2.5 -5.6875 2.65625 -5.65625 C 2.84375 -5.640625 2.859375 -5.625 2.859375 -5.546875 C 2.859375 -5.515625 2.859375 -5.484375 2.828125 -5.34375 L 1.65625 -0.6875 C 1.59375 -0.390625 1.578125 -0.3125 0.890625 -0.3125 C 0.734375 -0.3125 0.625 -0.3125 0.625 -0.125 C 0.625 -0.046875 0.6875 0 0.765625 0 C 0.9375 0 1.125 -0.03125 1.3125 -0.03125 C 1.46875 -0.03125 1.734375 -0.03125 1.890625 -0.03125 C 2.0625 -0.03125 2.265625 -0.03125 2.453125 -0.03125 C 2.640625 -0.03125 2.859375 0 3.03125 0 C 3.078125 0 3.21875 0 3.21875 -0.1875 C 3.21875 -0.3125 3.140625 -0.3125 2.9375 -0.3125 C 2.796875 -0.3125 2.75 -0.3125 2.59375 -0.328125 C 2.40625 -0.359375 2.40625 -0.375 2.40625 -0.46875 C 2.40625 -0.46875 2.40625 -0.53125 2.4375 -0.65625 L 3 -2.875 L 4.1875 -2.875 C 4.9375 -2.875 5.265625 -2.5 5.265625 -2.09375 C 5.265625 -1.96875 5.1875 -1.671875 5.140625 -1.46875 C 5.046875 -1.078125 5 -0.9375 5 -0.796875 C 5 -0.09375 5.640625 0.171875 6.296875 0.171875 C 7.109375 0.171875 7.453125 -0.6875 7.453125 -0.84375 C 7.453125 -0.875 7.4375 -0.96875 7.3125 -0.96875 C 7.1875 -0.96875 7.171875 -0.90625 7.140625 -0.8125 C 7.03125 -0.4375 6.703125 -0.0625 6.328125 -0.0625 C 6.109375 -0.0625 5.9375 -0.171875 5.9375 -0.640625 C 5.9375 -0.859375 5.984375 -1.3125 6.03125 -1.546875 C 6.0625 -1.796875 6.0625 -1.875 6.0625 -1.96875 C 6.0625 -2.078125 6.0625 -2.359375 5.8125 -2.609375 C 5.640625 -2.796875 5.40625 -2.921875 5.21875 -2.984375 Z M 5.21875 -2.984375 "/>
</symbol>
<symbol overflow="visible" id="glyph0-2">
<path style="stroke:none;" d="M 5.015625 -3.53125 C 4.984375 -3.59375 4.96875 -3.625 4.96875 -3.640625 C 4.96875 -3.65625 4.984375 -3.65625 5.1875 -3.796875 L 6.0625 -4.421875 C 7.234375 -5.25 7.765625 -5.625 8.390625 -5.6875 C 8.484375 -5.6875 8.59375 -5.703125 8.59375 -5.875 C 8.59375 -5.9375 8.53125 -5.984375 8.484375 -5.984375 C 8.296875 -5.984375 8.0625 -5.96875 7.875 -5.96875 C 7.640625 -5.96875 7.046875 -6 6.8125 -6 C 6.765625 -6 6.625 -6 6.625 -5.796875 C 6.625 -5.796875 6.625 -5.6875 6.765625 -5.6875 C 6.859375 -5.671875 6.984375 -5.65625 6.984375 -5.5625 C 6.984375 -5.40625 6.703125 -5.203125 6.59375 -5.125 L 2.9375 -2.546875 L 3.625 -5.3125 C 3.703125 -5.609375 3.71875 -5.6875 4.40625 -5.6875 C 4.546875 -5.6875 4.65625 -5.6875 4.65625 -5.859375 C 4.65625 -5.9375 4.609375 -6 4.515625 -6 C 4.265625 -6 3.625 -5.96875 3.375 -5.96875 C 3.21875 -5.96875 2.921875 -5.96875 2.765625 -5.96875 C 2.59375 -5.984375 2.375 -6 2.21875 -6 C 2.15625 -6 2.03125 -6 2.03125 -5.796875 C 2.03125 -5.6875 2.125 -5.6875 2.3125 -5.6875 C 2.453125 -5.6875 2.5 -5.6875 2.65625 -5.65625 C 2.828125 -5.640625 2.84375 -5.625 2.84375 -5.546875 C 2.84375 -5.515625 2.84375 -5.484375 2.8125 -5.34375 L 1.640625 -0.6875 C 1.578125 -0.390625 1.546875 -0.3125 0.875 -0.3125 C 0.71875 -0.3125 0.609375 -0.3125 0.609375 -0.125 C 0.609375 -0.109375 0.609375 0 0.75 0 C 1 0 1.640625 -0.03125 1.890625 -0.03125 C 2.03125 -0.03125 2.34375 -0.03125 2.5 -0.03125 C 2.671875 -0.015625 2.890625 0 3.0625 0 C 3.109375 0 3.234375 0 3.234375 -0.1875 C 3.234375 -0.3125 3.140625 -0.3125 2.953125 -0.3125 C 2.953125 -0.3125 2.78125 -0.3125 2.625 -0.328125 C 2.421875 -0.34375 2.421875 -0.375 2.421875 -0.46875 C 2.421875 -0.53125 2.515625 -0.859375 2.84375 -2.15625 L 4.296875 -3.171875 L 5.5625 -0.71875 C 5.625 -0.59375 5.625 -0.59375 5.625 -0.546875 C 5.625 -0.34375 5.390625 -0.3125 5.21875 -0.3125 C 5.125 -0.3125 5 -0.3125 5 -0.125 C 5 -0.109375 5 0 5.140625 0 C 5.390625 0 6.03125 -0.03125 6.265625 -0.03125 C 6.53125 -0.03125 6.890625 0 7.125 0 C 7.25 0 7.3125 -0.0625 7.3125 -0.1875 C 7.3125 -0.3125 7.1875 -0.3125 7.109375 -0.3125 C 6.953125 -0.3125 6.671875 -0.328125 6.53125 -0.609375 Z M 5.015625 -3.53125 "/>
</symbol>
</g>
</defs>
<g id="surface1">
<g style="fill:rgb(0%,0%,0%);fill-opacity:1;">
  <use xlink:href="#glyph0-1" x="1.25703" y="6.82852"/>
</g>
<g style="fill:rgb(0%,0%,0%);fill-opacity:1;">
  <use xlink:href="#glyph0-2" x="8.914064" y="6.82852"/>
</g>
</g>
</svg>
