<?xml version="1.0" encoding="UTF-8"?>
<svg xmlns="http://www.w3.org/2000/svg" xmlns:xlink="http://www.w3.org/1999/xlink" width="39pt" height="10pt" viewBox="0 0 39 10" version="1.1">
<defs>
<g>
<symbol overflow="visible" id="glyph0-0">
<path style="stroke:none;" d=""/>
</symbol>
<symbol overflow="visible" id="glyph0-1">
<path style="stroke:none;" d="M 0.890625 -0.59375 C 0.859375 -0.4375 0.796875 -0.21875 0.796875 -0.15625 C 0.796875 0.015625 0.9375 0.109375 1.078125 0.109375 C 1.203125 0.109375 1.390625 0.03125 1.453125 -0.171875 C 1.484375 -0.21875 1.8125 -1.578125 1.859375 -1.765625 C 1.9375 -2.09375 2.125 -2.796875 2.1875 -3.0625 C 2.21875 -3.1875 2.5 -3.671875 2.75 -3.890625 C 2.828125 -3.953125 3.109375 -4.21875 3.546875 -4.21875 C 3.8125 -4.21875 3.953125 -4.09375 3.96875 -4.09375 C 3.671875 -4.046875 3.453125 -3.8125 3.453125 -3.546875 C 3.453125 -3.390625 3.5625 -3.1875 3.828125 -3.1875 C 4.09375 -3.1875 4.375 -3.421875 4.375 -3.78125 C 4.375 -4.140625 4.0625 -4.4375 3.546875 -4.4375 C 2.890625 -4.4375 2.453125 -3.953125 2.265625 -3.671875 C 2.1875 -4.125 1.8125 -4.4375 1.34375 -4.4375 C 0.890625 -4.4375 0.6875 -4.046875 0.609375 -3.875 C 0.421875 -3.53125 0.296875 -2.921875 0.296875 -2.890625 C 0.296875 -2.796875 0.390625 -2.796875 0.40625 -2.796875 C 0.515625 -2.796875 0.515625 -2.796875 0.578125 -3.03125 C 0.75 -3.734375 0.953125 -4.21875 1.3125 -4.21875 C 1.484375 -4.21875 1.625 -4.140625 1.625 -3.75 C 1.625 -3.546875 1.59375 -3.4375 1.46875 -2.90625 Z M 0.890625 -0.59375 "/>
</symbol>
<symbol overflow="visible" id="glyph1-0">
<path style="stroke:none;" d=""/>
</symbol>
<symbol overflow="visible" id="glyph1-1">
<path style="stroke:none;" d="M 2.90625 -4.3125 C 2.953125 -4.5 2.96875 -4.53125 3.125 -4.546875 L 3.578125 -4.546875 C 4.21875 -4.546875 5.03125 -4.546875 5.03125 -3.828125 C 5.03125 -3.53125 4.90625 -3.09375 4.5625 -2.84375 C 4.28125 -2.609375 3.84375 -2.5 3.359375 -2.5 L 2.453125 -2.5 Z M 4.171875 -2.390625 C 5.015625 -2.59375 5.765625 -3.09375 5.765625 -3.71875 C 5.765625 -4.328125 5.046875 -4.796875 4.015625 -4.796875 L 1.859375 -4.796875 C 1.734375 -4.796875 1.640625 -4.796875 1.640625 -4.640625 C 1.640625 -4.546875 1.71875 -4.546875 1.859375 -4.546875 C 1.875 -4.546875 2 -4.546875 2.125 -4.53125 C 2.28125 -4.515625 2.296875 -4.5 2.296875 -4.4375 C 2.296875 -4.421875 2.296875 -4.390625 2.265625 -4.28125 L 1.328125 -0.546875 C 1.265625 -0.3125 1.265625 -0.25 0.703125 -0.25 C 0.59375 -0.25 0.5 -0.25 0.5 -0.109375 C 0.5 -0.03125 0.546875 0 0.609375 0 C 0.75 0 0.90625 -0.015625 1.046875 -0.015625 C 1.1875 -0.015625 1.390625 -0.03125 1.515625 -0.03125 C 1.65625 -0.03125 1.8125 -0.015625 1.96875 -0.015625 C 2.109375 -0.015625 2.28125 0 2.4375 0 C 2.46875 0 2.578125 0 2.578125 -0.140625 C 2.578125 -0.25 2.515625 -0.25 2.34375 -0.25 C 2.234375 -0.25 2.203125 -0.25 2.078125 -0.265625 C 1.921875 -0.28125 1.921875 -0.296875 1.921875 -0.375 C 1.921875 -0.375 1.921875 -0.421875 1.953125 -0.53125 L 2.390625 -2.3125 L 3.359375 -2.3125 C 3.953125 -2.3125 4.21875 -2 4.21875 -1.671875 C 4.21875 -1.578125 4.15625 -1.34375 4.125 -1.1875 C 4.03125 -0.859375 4 -0.75 4 -0.625 C 4 -0.078125 4.515625 0.140625 5.046875 0.140625 C 5.6875 0.140625 5.96875 -0.546875 5.96875 -0.671875 C 5.96875 -0.703125 5.953125 -0.765625 5.84375 -0.765625 C 5.765625 -0.765625 5.75 -0.71875 5.71875 -0.65625 C 5.625 -0.34375 5.359375 -0.0625 5.0625 -0.0625 C 4.890625 -0.0625 4.75 -0.140625 4.75 -0.515625 C 4.75 -0.6875 4.796875 -1.046875 4.828125 -1.25 C 4.84375 -1.4375 4.84375 -1.5 4.84375 -1.578125 C 4.84375 -1.65625 4.84375 -1.890625 4.65625 -2.09375 C 4.515625 -2.25 4.328125 -2.328125 4.171875 -2.390625 Z M 4.171875 -2.390625 "/>
</symbol>
<symbol overflow="visible" id="glyph1-2">
<path style="stroke:none;" d="M 4.015625 -2.828125 C 4 -2.875 3.984375 -2.90625 3.984375 -2.90625 C 3.984375 -2.921875 3.984375 -2.9375 4.140625 -3.046875 L 4.859375 -3.546875 C 5.78125 -4.203125 6.21875 -4.5 6.71875 -4.546875 C 6.796875 -4.5625 6.890625 -4.5625 6.890625 -4.703125 C 6.890625 -4.765625 6.828125 -4.796875 6.796875 -4.796875 C 6.640625 -4.796875 6.46875 -4.78125 6.3125 -4.78125 C 6.109375 -4.78125 5.640625 -4.796875 5.453125 -4.796875 C 5.40625 -4.796875 5.3125 -4.796875 5.3125 -4.640625 C 5.3125 -4.640625 5.3125 -4.5625 5.40625 -4.546875 C 5.5 -4.546875 5.59375 -4.53125 5.59375 -4.453125 C 5.59375 -4.328125 5.375 -4.171875 5.28125 -4.109375 L 2.34375 -2.03125 L 2.90625 -4.25 C 2.96875 -4.5 2.96875 -4.546875 3.515625 -4.546875 C 3.640625 -4.546875 3.734375 -4.546875 3.734375 -4.703125 C 3.734375 -4.765625 3.6875 -4.796875 3.625 -4.796875 C 3.421875 -4.796875 2.90625 -4.78125 2.703125 -4.78125 C 2.578125 -4.78125 2.328125 -4.78125 2.21875 -4.78125 C 2.078125 -4.78125 1.90625 -4.796875 1.765625 -4.796875 C 1.734375 -4.796875 1.625 -4.796875 1.625 -4.640625 C 1.625 -4.546875 1.703125 -4.546875 1.859375 -4.546875 C 1.96875 -4.546875 2 -4.546875 2.125 -4.53125 C 2.265625 -4.515625 2.28125 -4.5 2.28125 -4.4375 C 2.28125 -4.421875 2.28125 -4.390625 2.25 -4.28125 L 1.3125 -0.546875 C 1.265625 -0.3125 1.25 -0.25 0.703125 -0.25 C 0.5625 -0.25 0.484375 -0.25 0.484375 -0.09375 C 0.484375 -0.09375 0.484375 0 0.59375 0 C 0.796875 0 1.3125 -0.03125 1.515625 -0.03125 C 1.625 -0.03125 1.875 -0.03125 2 -0.015625 C 2.140625 -0.015625 2.3125 0 2.453125 0 C 2.484375 0 2.59375 0 2.59375 -0.15625 C 2.59375 -0.25 2.515625 -0.25 2.375 -0.25 C 2.359375 -0.25 2.234375 -0.25 2.109375 -0.265625 C 1.9375 -0.28125 1.9375 -0.296875 1.9375 -0.375 C 1.9375 -0.421875 2.015625 -0.6875 2.265625 -1.71875 L 3.4375 -2.546875 L 4.453125 -0.5625 C 4.5 -0.484375 4.5 -0.46875 4.5 -0.4375 C 4.5 -0.28125 4.3125 -0.25 4.1875 -0.25 C 4.09375 -0.25 4 -0.25 4 -0.09375 C 4 -0.09375 4 0 4.125 0 C 4.3125 0 4.828125 -0.03125 5.015625 -0.03125 C 5.234375 -0.03125 5.515625 0 5.703125 0 C 5.796875 0 5.84375 -0.046875 5.84375 -0.140625 C 5.84375 -0.25 5.765625 -0.25 5.6875 -0.25 C 5.5625 -0.25 5.34375 -0.265625 5.21875 -0.484375 Z M 4.015625 -2.828125 "/>
</symbol>
<symbol overflow="visible" id="glyph2-0">
<path style="stroke:none;" d=""/>
</symbol>
<symbol overflow="visible" id="glyph2-1">
<path style="stroke:none;" d="M 6.90625 -3.28125 C 7.046875 -3.28125 7.25 -3.28125 7.25 -3.484375 C 7.25 -3.6875 7.046875 -3.6875 6.90625 -3.6875 L 0.890625 -3.6875 C 0.75 -3.6875 0.5625 -3.6875 0.5625 -3.484375 C 0.5625 -3.28125 0.75 -3.28125 0.90625 -3.28125 Z M 6.90625 -1.34375 C 7.046875 -1.34375 7.25 -1.34375 7.25 -1.53125 C 7.25 -1.734375 7.046875 -1.734375 6.90625 -1.734375 L 0.90625 -1.734375 C 0.75 -1.734375 0.5625 -1.734375 0.5625 -1.53125 C 0.5625 -1.34375 0.75 -1.34375 0.890625 -1.34375 Z M 6.90625 -1.34375 "/>
</symbol>
<symbol overflow="visible" id="glyph2-2">
<path style="stroke:none;" d="M 2.953125 -6.4375 C 2.953125 -6.671875 2.953125 -6.6875 2.71875 -6.6875 C 2.09375 -6.046875 1.21875 -6.046875 0.890625 -6.046875 L 0.890625 -5.734375 C 1.09375 -5.734375 1.6875 -5.734375 2.203125 -6 L 2.203125 -0.796875 C 2.203125 -0.4375 2.1875 -0.3125 1.28125 -0.3125 L 0.953125 -0.3125 L 0.953125 0 C 1.3125 -0.03125 2.1875 -0.03125 2.578125 -0.03125 C 2.984375 -0.03125 3.859375 -0.03125 4.203125 0 L 4.203125 -0.3125 L 3.890625 -0.3125 C 2.984375 -0.3125 2.953125 -0.421875 2.953125 -0.796875 Z M 2.953125 -6.4375 "/>
</symbol>
</g>
</defs>
<g id="surface1">
<g style="fill:rgb(0%,0%,0%);fill-opacity:1;">
  <use xlink:href="#glyph0-1" x="1.42852" y="7.5"/>
</g>
<g style="fill:rgb(0%,0%,0%);fill-opacity:1;">
  <use xlink:href="#glyph1-1" x="5.92852" y="9"/>
</g>
<g style="fill:rgb(0%,0%,0%);fill-opacity:1;">
  <use xlink:href="#glyph1-2" x="12.071492" y="9"/>
</g>
<g style="fill:rgb(0%,0%,0%);fill-opacity:1;">
  <use xlink:href="#glyph2-1" x="22.57152" y="7.5"/>
</g>
<g style="fill:rgb(0%,0%,0%);fill-opacity:1;">
  <use xlink:href="#glyph2-2" x="33.143054" y="7.5"/>
</g>
</g>
</svg>
