<?xml version="1.0" encoding="UTF-8"?>
<svg xmlns="http://www.w3.org/2000/svg" xmlns:xlink="http://www.w3.org/1999/xlink" width="10pt" height="12pt" viewBox="0 0 10 12" version="1.1">
<defs>
<g>
<symbol overflow="visible" id="glyph0-0">
<path style="stroke:none;" d=""/>
</symbol>
<symbol overflow="visible" id="glyph0-1">
<path style="stroke:none;" d="M 4.984375 -7.84375 C 4.984375 -8.078125 4.8125 -8.296875 4.5 -8.296875 C 4.21875 -8.296875 3.84375 -8 3.84375 -7.625 C 3.84375 -7.375 4.015625 -7.171875 4.296875 -7.171875 C 4.640625 -7.171875 4.984375 -7.5 4.984375 -7.84375 Z M 2.453125 0.625 C 2.21875 1.578125 1.625 2.296875 0.921875 2.296875 C 0.84375 2.296875 0.65625 2.296875 0.421875 2.1875 C 0.796875 2.09375 0.984375 1.765625 0.984375 1.515625 C 0.984375 1.3125 0.859375 1.078125 0.515625 1.078125 C 0.203125 1.078125 -0.15625 1.34375 -0.15625 1.796875 C -0.15625 2.296875 0.34375 2.578125 0.9375 2.578125 C 1.8125 2.578125 2.984375 1.90625 3.296875 0.671875 L 4.453125 -3.921875 C 4.515625 -4.171875 4.515625 -4.359375 4.515625 -4.390625 C 4.515625 -5.109375 3.984375 -5.546875 3.359375 -5.546875 C 2.078125 -5.546875 1.375 -3.71875 1.375 -3.609375 C 1.375 -3.484375 1.5 -3.484375 1.515625 -3.484375 C 1.625 -3.484375 1.640625 -3.5 1.75 -3.734375 C 2.0625 -4.5 2.640625 -5.265625 3.328125 -5.265625 C 3.5 -5.265625 3.71875 -5.21875 3.71875 -4.6875 C 3.71875 -4.40625 3.6875 -4.265625 3.640625 -4.046875 Z M 2.453125 0.625 "/>
</symbol>
</g>
</defs>
<g id="surface1">
<g style="fill:rgb(0%,0%,0%);fill-opacity:1;">
  <use xlink:href="#glyph0-1" x="1.25703" y="8.82852"/>
</g>
</g>
</svg>
